<?xml version="1.0" encoding="utf-8"?>
<!-- Generator: Adobe Illustrator 22.1.0, SVG Export Plug-In . SVG Version: 6.00 Build 0)  -->
<svg version="1.1" id="Group_349" xmlns="http://www.w3.org/2000/svg" xmlns:xlink="http://www.w3.org/1999/xlink" x="0px" y="0px"
	 viewBox="0 0 41.3 41.2" style="enable-background:new 0 0 41.3 41.2;" xml:space="preserve">
<style type="text/css">
	.st0{fill:#F3942C;}
</style>
<path id="Path_2143" class="st0" d="M40,21.8H12.2v-1.2c0-2-1.6-3.6-3.6-3.6c0,0,0,0,0,0H7.3V6c0-2,1.6-3.6,3.6-3.6
	c1.6,0,3,1,3.5,2.6c-2.7,0.6-4.7,3.1-4.7,5.9c0,0.7,0.5,1.2,1.2,1.2h9.7c0.7,0,1.2-0.5,1.2-1.2c0-2.9-2.1-5.4-4.9-5.9
	c-0.6-3.3-3.8-5.5-7-4.8c-2.9,0.5-5,3-4.9,6v15.8H1.2C0.5,21.8,0,22.4,0,23s0.5,1.2,1.2,1.2h1.5l2,10c-1.3,0.6-2.2,1.9-2.2,3.3V40
	c0,0.7,0.5,1.2,1.2,1.2h33.9c0.7,0,1.2-0.5,1.2-1.2v-2.4c0-1.5-0.9-2.8-2.2-3.3l2-10H40c0.7,0,1.2-0.5,1.2-1.2
	C41.2,22.4,40.7,21.8,40,21.8L40,21.8z M15.8,7.2c1.5,0,2.9,1,3.4,2.4h-6.8C12.9,8.2,14.3,7.3,15.8,7.2z M24.2,24.2h4.9v4.9h-4.9
	V24.2z M7.3,19.4h1.2c0.7,0,1.2,0.5,1.2,1.2v1.2H7.3V19.4z M21.8,24.2v6.1c0,0.7,0.5,1.2,1.2,1.2h7.3c0.7,0,1.2-0.5,1.2-1.2v-6.1
	h4.6L34.2,34H7.1l-1.9-9.8H21.8z M36.4,38.8H4.9v-1.2c0-0.7,0.5-1.2,1.2-1.2h29.1c0.7,0,1.2,0.5,1.2,1.2L36.4,38.8L36.4,38.8z"/>
</svg>
