<?xml version="1.0" encoding="utf-8"?>
<!-- Generator: Adobe Illustrator 22.1.0, SVG Export Plug-In . SVG Version: 6.00 Build 0)  -->
<svg version="1.1" id="Group_347" xmlns="http://www.w3.org/2000/svg" xmlns:xlink="http://www.w3.org/1999/xlink" x="0px" y="0px"
	 viewBox="0 0 40.1 30.7" style="enable-background:new 0 0 40.1 30.7;" xml:space="preserve">
<style type="text/css">
	.st0{fill:#F3942C;}
</style>
<g id="Group_344">
	<path id="Path_2140" class="st0" d="M39,12.7c-0.4-0.4-0.8-0.6-1.3-0.8V6c0-3.2-2.6-5.9-5.9-5.9H8.2C5,0.1,2.3,2.7,2.3,6v6
		c-0.5,0.1-1,0.4-1.3,0.8c-1,1-1,2.6-1,4.4c0,0.8,0,7.6,0,7.6c0,0.6,0.5,1.2,1.2,1.2h1.2v3.5c0,0.6,0.5,1.2,1.2,1.2
		c0.6,0,1.2-0.5,1.2-1.2c0,0,0,0,0,0v-3.5h30.6v3.5c0,0.6,0.5,1.2,1.2,1.2s1.2-0.5,1.2-1.2l0,0v-3.5h1.2c0.6,0,1.2-0.5,1.2-1.2v-7.6
		C40.1,15.4,40.1,13.8,39,12.7L39,12.7z M4.7,6c0-1.9,1.6-3.5,3.5-3.5h23.6c1.9,0,3.5,1.6,3.5,3.5v5.9H33V8.3c0-1.9-1.6-3.5-3.5-3.5
		h-7.1c-0.9,0-1.7,0.3-2.3,0.9c-0.6-0.6-1.5-0.9-2.3-0.9h-7.1C8.6,4.8,7,6.4,7,8.3v3.5H4.7V6z M30.7,8.3v3.5h-9.5V8.3
		c0-0.6,0.5-1.2,1.2-1.2h7.1C30.1,7.2,30.7,7.7,30.7,8.3z M18.8,8.3v3.5H9.4V8.3c0-0.6,0.5-1.2,1.2-1.2h7.1
		C18.3,7.2,18.8,7.7,18.8,8.3z M37.7,23.6H2.3v-2.3h35.3V23.6z M37.7,17.1c0,0.7,0,0.6,0,1.8H2.3v-1.8c0-2.6,0.1-2.9,1.2-2.9h33
		c0.3,0,0.6,0,0.8,0.2C37.7,14.8,37.7,16,37.7,17.1L37.7,17.1z"/>
</g>
</svg>
