<?xml version="1.0" encoding="utf-8"?>
<!-- Generator: Adobe Illustrator 22.1.0, SVG Export Plug-In . SVG Version: 6.00 Build 0)  -->
<svg version="1.1" id="Camada_1" xmlns="http://www.w3.org/2000/svg" xmlns:xlink="http://www.w3.org/1999/xlink" x="0px" y="0px"
	 viewBox="0 0 44.5 28.6" style="enable-background:new 0 0 44.5 28.6;" xml:space="preserve">
<style type="text/css">
	.st0{fill:#F3942C;}
</style>
<g id="Group_388" transform="translate(-602 -790)">
	<path id="path" class="st0" d="M633.4,806.4c3,0.1,5.9,0.7,8.7,1.8c3,1.2,4.5,2.8,4.5,4.9v5.5H602v-5.5c0-2,1.6-3.6,4.5-4.9
		c2.7-1.2,5.7-1.8,8.7-1.8c3.1,0,6.3,0.7,9.1,2C627.1,807.1,630.2,806.4,633.4,806.4z M625.3,815.6v-2.4c0-0.6-1.2-1.4-3.4-2.2
		c-2.2-0.9-4.5-1.4-6.9-1.4c-2.4,0-4.7,0.5-6.9,1.4c-2.4,1-3.4,1.6-3.4,2.2v2.4H625.3z M620,802.4c-2.8,2.9-7.4,3-10.4,0.3
		c-2.9-2.8-3-7.4-0.3-10.4c2.8-2.9,7.4-3,10.4-0.3c1.5,1.4,2.3,3.3,2.3,5.3C622.1,799.2,621.4,801.1,620,802.4L620,802.4z
		 M618,794.5c-1.6-1.5-4-1.4-5.5,0.1c-1.5,1.6-1.4,4,0.1,5.5c1.6,1.5,4,1.4,5.5-0.1c0.7-0.7,1.1-1.7,1.1-2.7
		C619.2,796.3,618.8,795.2,618,794.5L618,794.5z M638.2,802.4c-2.8,2.9-7.4,3-10.4,0.3c-2.9-2.8-3-7.4-0.3-10.4
		c2.8-2.9,7.4-3,10.4-0.3c1.5,1.4,2.3,3.3,2.3,5.3C640.3,799.2,639.6,801.1,638.2,802.4L638.2,802.4z M643.5,815.6v-2.4
		c0-0.6-1.2-1.4-3.4-2.2c-4.1-1.8-8.8-1.9-13-0.2c0.6,0.7,0.9,1.5,1,2.4v2.4L643.5,815.6z M636.2,794.5c-1.6-1.5-4-1.4-5.5,0.1
		s-1.4,4,0.1,5.5s4,1.4,5.5-0.1c0.7-0.7,1.1-1.7,1.1-2.7C637.4,796.3,637,795.2,636.2,794.5L636.2,794.5z"/>
</g>
</svg>
