<?xml version="1.0" encoding="utf-8"?>
<!-- Generator: Adobe Illustrator 22.1.0, SVG Export Plug-In . SVG Version: 6.00 Build 0)  -->
<svg version="1.1" id="Group_351" xmlns="http://www.w3.org/2000/svg" xmlns:xlink="http://www.w3.org/1999/xlink" x="0px" y="0px"
	 viewBox="0 0 31.9 31.2" style="enable-background:new 0 0 31.9 31.2;" xml:space="preserve">
<style type="text/css">
	.st0{fill:#F3942C;}
</style>
<path id="Path_2150" class="st0" d="M21.3,31.2c-1.9-0.1-3.6-0.9-4.9-2.2c-0.3-0.3-0.7-0.3-1,0c-1.3,1.3-3,2.1-4.8,2.2
	c-1.8,0-3.5-0.7-4.7-2c-1.3-1.2-2-2.9-2.1-4.7c-0.1-1.7,0.4-3.5,1.4-4.9c1.7-2.2,3.6-4.3,5.7-6.1c1.3-1.3,3.2-2.1,5.1-2.1l0,0
	c1.9,0,3.7,0.7,5.1,2.1c2.1,1.9,4,3.9,5.7,6.1c1,1.4,1.5,3.1,1.4,4.9C28,26.4,27.3,28,26,29.2C24.8,30.5,23.1,31.2,21.3,31.2z
	 M15.9,26.6c0.7,0,1.5,0.3,2,0.8c0.9,1,2.1,1.5,3.4,1.6c2.5-0.1,4.5-2.1,4.7-4.6c0.1-1.3-0.3-2.6-1.1-3.6c-1.6-2.1-3.5-4-5.4-5.8
	c-2-1.9-5.1-1.9-7.1,0c-2,1.8-3.8,3.7-5.4,5.8c-0.8,1-1.1,2.3-1.1,3.6C6,27,8.1,29,10.6,29c1.3-0.1,2.5-0.7,3.4-1.7
	C14.5,26.9,15.2,26.6,15.9,26.6L15.9,26.6z"/>
<path id="Path_2151" class="st0" d="M11.1,11.6c-2.5,0-4.6-2.6-4.6-5.8S8.6,0,11.1,0c2.5,0,4.6,2.6,4.6,5.8S13.7,11.6,11.1,11.6z
	 M11.1,2.2c-1.3,0-2.5,1.7-2.5,3.7s1.1,3.7,2.5,3.7c1.3,0,2.5-1.7,2.5-3.7S12.4,2.2,11.1,2.2L11.1,2.2z"/>
<path id="Path_2152" class="st0" d="M20.8,11.6c-2.5,0-4.6-2.6-4.6-5.8S18.3,0,20.8,0s4.6,2.6,4.6,5.8S23.3,11.6,20.8,11.6z
	 M20.8,2.2c-1.3,0-2.5,1.7-2.5,3.7s1.1,3.7,2.5,3.7s2.5-1.7,2.5-3.7S22.1,2.2,20.8,2.2L20.8,2.2z"/>
<path id="Path_2153" class="st0" d="M27.7,17.2c-0.2,0-0.4,0-0.6-0.1c-1.1-0.2-2-1-2.5-2c-1-2.2-0.5-4.8,1.3-6.4
	c0.8-0.8,2-1.1,3.1-0.9l0,0c2.1,0.4,3.4,2.8,2.9,5.4c-0.2,1.2-0.8,2.2-1.6,3C29.5,16.9,28.6,17.2,27.7,17.2z M28.3,9.9
	c-0.4,0-0.7,0.2-1,0.4c-0.5,0.5-0.8,1.1-1,1.8c-0.2,0.7-0.1,1.4,0.2,2c0.2,0.7,1,1,1.6,0.8c0.2-0.1,0.4-0.2,0.5-0.4
	c0.5-0.5,0.8-1.1,1-1.8c0.3-1.4-0.2-2.7-1.2-2.9l0,0C28.4,9.9,28.4,9.9,28.3,9.9L28.3,9.9z"/>
<path id="Path_2154" class="st0" d="M4.2,17.2c-0.9,0-1.8-0.4-2.4-1c-0.9-0.8-1.4-1.9-1.6-3c-0.5-2.6,0.7-5,2.9-5.4l0,0
	C4.1,7.6,5.2,8,6.1,8.8c0.9,0.8,1.4,1.9,1.6,3c0.2,1.1,0.1,2.3-0.4,3.4c-0.5,1-1.4,1.8-2.5,2C4.6,17.2,4.4,17.2,4.2,17.2z M3.6,9.9
	c-0.1,0-0.2,0-0.2,0l0,0c-0.9,0.2-1.4,1.5-1.2,2.9c0.1,0.7,0.4,1.3,1,1.8C3.5,15,4,15.1,4.4,15.1c0.4-0.1,0.8-0.4,1-0.8
	c0.3-0.6,0.4-1.4,0.2-2.1c-0.1-0.7-0.5-1.3-1-1.8C4.3,10.1,4,9.9,3.6,9.9L3.6,9.9z"/>
</svg>
