<?xml version="1.0" encoding="utf-8"?>
<!-- Generator: Adobe Illustrator 22.1.0, SVG Export Plug-In . SVG Version: 6.00 Build 0)  -->
<svg version="1.1" id="Group_350" xmlns="http://www.w3.org/2000/svg" xmlns:xlink="http://www.w3.org/1999/xlink" x="0px" y="0px"
	 viewBox="0 0 43.3 33.5" style="enable-background:new 0 0 43.3 33.5;" xml:space="preserve">
<style type="text/css">
	.st0{fill:#F3942C;}
</style>
<path id="Path_2145" class="st0" d="M41.6,12.4l-0.9-1l-3.3-8.9C36.8,1,35.4,0,33.8,0H10.1C8.5,0,7.1,1,6.5,2.5l-3.3,8.8l-1.4,1.3
	c-1.2,1-1.9,2.5-1.9,4v13c0,2.1,1.7,3.8,3.9,3.8h2.4c2.1,0,3.9-1.7,3.9-3.8v-1.9h22.9v1.9c0,2.1,1.7,3.8,3.9,3.8h2.4
	c2.1,0,3.9-1.7,3.9-3.8V16.3C43.3,14.8,42.7,13.4,41.6,12.4z M8.2,3.1c0.3-0.8,1-1.3,1.9-1.3h23.7c0.8,0,1.6,0.5,1.9,1.3l2.9,7.8
	h-2.2c-0.5-3.5-3.7-5.9-7.2-5.3c-2.8,0.4-4.9,2.6-5.3,5.3H5.3L8.2,3.1z M34.5,10.9h-8.8c0.5-2.4,2.9-4,5.3-3.5
	C32.8,7.8,34.1,9.2,34.5,10.9z M8.3,29.6c0,1.1-0.9,2-2,2H3.9c-1.1,0-2-0.9-2-2v-2.4c0.6,0.4,1.3,0.6,2,0.5h4.5V29.6z M41.4,29.6
	c0,1.1-0.9,2-2,2H37c-1.1,0-2-0.9-2-2v-1.9h4.5c0.7,0,1.4-0.2,2-0.5L41.4,29.6L41.4,29.6z M39.4,25.9H3.9c-1.1,0-2-0.9-2-2
	c0,0,0,0,0,0v-7.3c0-1,0.5-2,1.2-2.6l0,0l1.3-1.2h35l0.9,1c0,0,0,0,0,0c0.7,0.7,1.1,1.6,1.1,2.5v7.6h0C41.4,25,40.5,25.9,39.4,25.9
	C39.4,25.9,39.4,25.9,39.4,25.9z"/>
<path id="Path_2146" class="st0" d="M12.2,16.5H5.3c-0.5,0-0.9,0.4-0.9,0.9v4.8c0,0.5,0.4,0.9,0.9,0.9h6.9c0.5,0,0.9-0.4,0.9-0.9
	v-4.8C13.1,16.9,12.7,16.5,12.2,16.5z M11.3,21.3H6.2v-3h5.1L11.3,21.3z"/>
<path id="Path_2147" class="st0" d="M38,16.5h-6.9c-0.5,0-0.9,0.4-0.9,0.9v4.8c0,0.5,0.4,0.9,0.9,0.9H38c0.5,0,0.9-0.4,0.9-0.9v-4.8
	C38.9,16.9,38.5,16.5,38,16.5z M37.1,21.3H32v-3h5.1L37.1,21.3z"/>
<path id="Path_2148" class="st0" d="M26.1,20.3h-8.9c-0.5,0-0.9,0.4-0.9,0.9s0.4,0.9,0.9,0.9h8.9c0.5,0,0.9-0.4,0.9-0.9
	S26.6,20.3,26.1,20.3z"/>
<path id="Path_2149" class="st0" d="M26.1,17.5h-8.9c-0.5,0-0.9,0.4-0.9,0.9s0.4,0.9,0.9,0.9h8.9c0.5,0,0.9-0.4,0.9-0.9
	S26.6,17.5,26.1,17.5z"/>
</svg>
